/vscmnt/brussel_pixiu_data/_data_brussel/112/vsc11236/PredSimResults/SUBJ10opt3D/expIG/worker_06.mot
version=1
nRows=11
nColumns=50
inDegrees=yes
endheader
                time	         pelvis_tilt	         pelvis_list	     pelvis_rotation	           pelvis_tx	           pelvis_ty	           pelvis_tz	       hip_flexion_r	     hip_adduction_r	      hip_rotation_r	        knee_angle_r	       ankle_angle_r	         mtp_angle_r	       hip_flexion_l	     hip_adduction_l	      hip_rotation_l	        knee_angle_l	       ankle_angle_l	         mtp_angle_l	    lumbar_extension	      lumbar_bending	     lumbar_rotation	 ercspn_r/activation	 intobl_r/activation	 extobl_r/activation	    abd_r/activation	    add_r/activation	hamstrings_r/activation	bifemsh_r/activation	glut_max_r/activation	iliopsoas_r/activation	rect_fem_r/activation	  vasti_r/activation	gastroc_r/activation	 soleus_r/activation	tib_ant_r/activation	 ercspn_l/activation	 intobl_l/activation	 extobl_l/activation	    abd_l/activation	    add_l/activation	hamstrings_l/activation	bifemsh_l/activation	glut_max_l/activation	iliopsoas_l/activation	rect_fem_l/activation	  vasti_l/activation	gastroc_l/activation	 soleus_l/activation	tib_ant_l/activation	
          0.00000000	         -3.65800208	         -0.90089830	          7.44331496	          0.00000000	          0.82517516	         -0.01351504	         29.79448310	         -1.71116743	         -5.61143646	         -8.26101036	          2.68306479	          0.25806404	        -15.89871370	         -1.07075683	         -0.72988928	         -6.45950050	          8.73714483	         25.52177639	         -6.16158370	         -0.79245663	         -6.02811692	          0.10411796	          0.17213163	          0.00999999	          0.00999999	          0.15781540	          0.09774272	          0.19900824	          0.04486633	          0.09166561	          0.00999999	          0.00999999	          0.01704997	          0.01194651	          0.27706604	          0.09204022	          0.00999999	          0.00999999	          0.05076489	          0.00999999	          0.01053011	          0.18462731	          0.01194651	          0.30196067	          0.00999999	          0.00999999	          0.27740492	          0.24124027	          0.02118728	
          0.01167910	         -3.69865491	         -0.85624487	          7.50352254	          0.01517374	          0.82396197	         -0.01315732	         29.56150299	         -1.61689613	         -5.35171636	         -9.64399931	          2.35426695	          0.24904720	        -15.98534638	         -1.17774225	         -1.07125948	         -8.11031487	          8.04707897	         27.11341852	         -5.94876614	         -0.35710731	         -6.33263460	          0.08728968	          0.14408520	          0.00999999	          0.01605303	          0.13210160	          0.08519412	          0.16658264	          0.08094036	          0.07672998	          0.00999999	          0.00999999	          0.01427191	          0.00999999	          0.34440097	          0.10487121	          0.00999999	          0.00999999	          0.04249346	          0.00999999	          0.01000000	          0.15454488	          0.00999999	          0.25276042	          0.00999999	          0.00999999	          0.24198218	          0.22945597	          0.01773511	
          0.02335821	         -3.73090961	         -0.81326896	          7.51332483	          0.03051221	          0.82305781	         -0.01267210	         29.23902610	         -1.52129258	         -5.17249814	        -10.85443268	          1.89982877	          0.23938990	        -15.93151820	         -1.29430960	         -1.44361464	        -10.02481434	          7.20400823	         28.64612253	         -5.73213241	          0.08332215	         -6.61057625	          0.10945248	          0.12060854	          0.00999999	          0.06771268	          0.16818531	          0.07137887	          0.13944033	          0.09560803	          0.06422791	          0.00999999	          0.00999999	          0.01194651	          0.00999999	          0.39353935	          0.12760821	          0.00999999	          0.00999999	          0.03556975	          0.00999999	          0.00999999	          0.12936396	          0.00999999	          0.21157665	          0.00999999	          0.00999999	          0.20255458	          0.21447004	          0.01484542	
          0.03503731	         -3.75382497	         -0.76545443	          7.47672828	          0.04588584	          0.82256400	         -0.01207885	         28.89781960	         -1.42976598	         -5.08314881	        -12.04969397	          1.47582998	          0.22708399	        -15.68970138	         -1.41482451	         -1.85103588	        -12.26426400	          6.20414210	         30.02826736	         -5.52225324	          0.52068968	         -6.85632396	          0.10919091	          0.10095707	          0.00999999	          0.10022392	          0.20768672	          0.06387417	          0.11672049	          0.09680060	          0.05376287	          0.00999999	          0.01321384	          0.00999999	          0.00999999	          0.41933790	          0.15157858	          0.00999999	          0.00999999	          0.02977416	          0.00999999	          0.01000005	          0.10828592	          0.00999999	          0.17710321	          0.00999999	          0.00999999	          0.16955115	          0.19697397	          0.01242657	
          0.04671642	         -3.76722968	         -0.71845799	          7.40115298	          0.06119143	          0.82254166	         -0.01139014	         28.57746982	         -1.33683923	         -5.05440803	        -13.30996551	          1.19971996	          0.21420554	        -15.21972345	         -1.54994627	         -2.29483328	        -14.87668524	          5.06847520	         31.11683310	         -5.32473731	          0.95792885	         -7.07104467	          0.10632982	          0.08450753	          0.00999999	          0.12265126	          0.22808315	          0.06258477	          0.09770252	          0.09350468	          0.04500297	          0.00999999	          0.03999308	          0.00999999	          0.00999999	          0.42844034	          0.17012875	          0.00999999	          0.00999999	          0.02492288	          0.05426479	          0.02292152	          0.09064225	          0.00999999	          0.14824672	          0.00999999	          0.00999999	          0.14192517	          0.17213164	          0.01040183	
          0.05839552	         -3.77262288	         -0.67242246	          7.29079514	          0.07633717	          0.82306104	         -0.01062595	         28.24740659	         -1.23681620	         -5.04977851	        -14.57216315	          1.12488010	          0.20049592	        -14.48175465	         -1.70352151	         -2.79489102	        -17.90396920	          3.81666162	         31.72734100	         -5.14492054	          1.39303490	         -7.25549910	          0.10070192	          0.07073822	          0.00999999	          0.13369816	          0.24398332	          0.06358048	          0.08178327	          0.08841673	          0.03767036	          0.00999999	          0.06818754	          0.00999999	          0.00999999	          0.41671652	          0.18074489	          0.00999999	          0.00999999	          0.02086204	          0.11775322	          0.02967968	          0.07587336	          0.00999999	          0.12409200	          0.00999999	          0.00999999	          0.11880045	          0.14408520	          0.00999999	
          0.07007463	         -3.77183123	         -0.62160814	          7.14708790	          0.09125939	          0.82415300	         -0.00981018	         27.85007825	         -1.12740598	         -5.03880263	        -15.73158407	          1.28662578	          0.19222137	        -13.44542117	         -1.87813598	         -3.37012355	        -21.37827681	          2.46808705	         31.67183878	         -4.98694556	          1.81924829	         -7.40854949	          0.09544056	          0.05921242	          0.00999999	          0.13772982	          0.25212218	          0.06622986	          0.06845783	          0.08319797	          0.03153251	          0.00999999	          0.08582536	          0.00999999	          0.00999999	          0.38423554	          0.18368809	          0.00999999	          0.00999999	          0.01746287	          0.17448540	          0.03315600	          0.06351086	          0.00999999	          0.10387295	          0.00999999	          0.00999999	          0.09944359	          0.12060854	          0.00999999	
          0.08175373	         -3.76647251	         -0.55865628	          6.96982103	          0.10591683	          0.82578861	         -0.00896546	         27.34058562	         -1.01055925	         -4.99849862	        -16.69899787	          1.67243415	          0.20821883	        -12.10191026	         -2.07796891	         -4.01019894	        -25.26697848	          0.90950346	         30.97123113	         -4.85425473	          2.22926512	         -7.52752235	          0.08459090	          0.04956458	          0.00999999	          0.13687568	          0.24363803	          0.06944761	          0.05730359	          0.07343402	          0.02639473	          0.00999999	          0.10973533	          0.00999999	          0.00999999	          0.33781964	          0.18218080	          0.00999999	          0.00999999	          0.01461754	          0.23751511	          0.03859847	          0.05316266	          0.00999999	          0.08694831	          0.00999999	          0.00999999	          0.08324065	          0.10095707	          0.00999999	
          0.09343283	         -3.75855524	         -0.47431459	          6.75714781	          0.12026707	          0.82791703	         -0.00811334	         26.67617766	         -0.89076771	         -4.90614223	        -17.37830451	          2.21818695	          0.27570179	        -10.46612714	         -2.30202103	         -4.68904272	        -29.47363757	         -0.99655883	         29.68360284	         -4.75244522	          2.61427660	         -7.60952025	          0.07080800	          0.04148873	          0.00999999	          0.13077501	          0.20576008	          0.07291496	          0.04796677	          0.06146898	          0.02209408	          0.00999999	          0.12599145	          0.00999999	          0.00999999	          0.29176775	          0.17316701	          0.00999999	          0.00999999	          0.01223581	          0.27285639	          0.05042291	          0.04450055	          0.00999999	          0.07278130	          0.00999999	          0.00999999	          0.06967775	          0.08450753	          0.00999999	
          0.10511194	         -3.74980291	         -0.35919460	          6.50830749	          0.13426143	          0.83045638	         -0.00726832	         25.85414914	         -0.77974620	         -4.75433360	        -17.74089947	          2.82008255	          0.38918136	         -8.57537036	         -2.54471577	         -5.36198698	        -33.85739919	         -3.34448421	         27.85371545	         -4.68993734	          2.96401237	         -7.65236009	          0.05927083	          0.03472872	          0.00999999	          0.12565249	          0.17223436	          0.07696846	          0.04015126	          0.05145347	          0.01849416	          0.00999999	          0.12476421	          0.00999999	          0.00999999	          0.25288353	          0.17828068	          0.02585407	          0.00999999	          0.01024216	          0.22839827	          0.08063516	          0.03961096	          0.00999999	          0.06092261	          0.00999999	          0.00999999	          0.05832474	          0.07073822	          0.01326178	
          0.11679104	         -3.74020294	         -0.21061915	          6.23027437	          0.14787559	          0.83326216	         -0.00642031	         24.90852966	         -0.68919538	         -4.55590500	        -17.83370989	          3.40542673	          0.53409248	         -6.49319229	         -2.79865555	         -5.97361901	        -38.30176290	         -5.78775398	         25.16470800	         -4.67172380	          3.26611357	         -7.65629449	          0.04961348	          0.02907017	          0.00999999	          0.12433753	          0.14417119	          0.07556457	          0.03360918	          0.04898296	          0.01548079	          0.00999999	          0.12816302	          0.00999999	          0.00999999	          0.22892855	          0.19640020	          0.05807799	          0.00999999	          0.00999999	          0.19118398	          0.06749680	          0.06412035	          0.01194651	          0.05099613	          0.00999999	          0.00999999	          0.04882154	          0.05921242	          0.12713215	
